<?xml version="1.0" encoding="UTF-8" standalone="no"?>
<svg
   xmlns:dc="http://purl.org/dc/elements/1.1/"
   xmlns:cc="http://creativecommons.org/ns#"
   xmlns:rdf="http://www.w3.org/1999/02/22-rdf-syntax-ns#"
   xmlns:svg="http://www.w3.org/2000/svg"
   xmlns="http://www.w3.org/2000/svg"
   xmlns:xlink="http://www.w3.org/1999/xlink"
   xmlns:sodipodi="http://sodipodi.sourceforge.net/DTD/sodipodi-0.dtd"
   xmlns:inkscape="http://www.inkscape.org/namespaces/inkscape"
   width="347.46161"
   height="429.08749"
   version="1.1"
   id="svg392"
   sodipodi:docname="SHIP_CREW2.svg"
   inkscape:version="1.0.2 (1.0.2+r75+1)">
  <metadata
     id="metadata398">
    <rdf:RDF>
      <cc:Work
         rdf:about="">
        <dc:format>image/svg+xml</dc:format>
        <dc:type
           rdf:resource="http://purl.org/dc/dcmitype/StillImage" />
        <dc:title></dc:title>
      </cc:Work>
    </rdf:RDF>
  </metadata>
  <defs
     id="defs396" />
  <sodipodi:namedview
     pagecolor="#ffffff"
     bordercolor="#666666"
     borderopacity="1"
     objecttolerance="10"
     gridtolerance="10"
     guidetolerance="10"
     inkscape:pageopacity="0"
     inkscape:pageshadow="2"
     inkscape:window-width="1848"
     inkscape:window-height="1016"
     id="namedview394"
     showgrid="false"
     showguides="false"
     inkscape:zoom="1.7727627"
     inkscape:cx="361.83193"
     inkscape:cy="208.73979"
     inkscape:window-x="72"
     inkscape:window-y="27"
     inkscape:window-maximized="1"
     inkscape:current-layer="g390" />
  <g
     transform="translate(-39.9,-552.6)"
     id="g390">
    <g
       id="g388">
      <path
         id="path232"
         d="m 80.283798,677.3247 c 1.585783,0.28335 25.125322,1.76589 25.125322,1.76589 0,0 -0.86045,-2.47827 -0.73447,-4.09513 C 86.586586,674.73746 66.012939,673.13051 44.8,673.7 c 0.867902,1.09104 -1.785517,3.66359 0.948089,3.94894 1.622556,0.16937 20.037913,-0.37956 26.467987,-0.78792"
         sodipodi:nodetypes="ccccsc" />
      <path
         id="path234"
         d="m 44.8,673.7 c 2.847019,21.53485 1.586951,44.8789 2.1,67.15 -0.905186,18.26545 0.644976,34.50136 -0.50238,52.212 C 42.454009,776.72375 45.727694,760.48126 44.8,743.1 c 0.233218,-22.52762 -0.358563,-45.10013 -1.1,-67.6 -0.335721,-0.68482 0.915585,-2.58588 1.7,-1.4"
         sodipodi:nodetypes="cccccc" />
      <path
         id="path236"
         d="m 92.815987,790.49855 c 7.887793,-0.77437 15.633353,-1.37405 13.281633,0.36345 -0.81072,0.59898 2.33223,0.52859 0,0 -3.564,0.16509 -44.78395,1.36788 -59.7,2.2 l -0.207389,-2.25582 c 7.312382,-1.07029 3.385326,-0.23765 10.737209,-0.061 M 102.9,795.6 h 0.1"
         sodipodi:nodetypes="cscccccc" />
      <path
         id="path238"
         d="m 105.5,739.2 c 0.35616,4.97315 -2.29017,-1.79433 0.2,0.6" />
      <path
         id="path240"
         d="m 105.1,675.9 c 2.18017,11.94422 0.77377,25.2581 1.3375,37.7 -1.92728,26.72984 3.0704,50.79488 -0.33988,77.262 -0.2326,-1.53487 -1.13847,0.94887 -1.29008,-0.58498 -1.50911,-15.26839 1.32321,-34.55369 -0.68254,-50.81452 0.27531,-21.03847 0.0483,-42.3233 0.4375,-63.25 l 0.50781,-0.32969 L 105.7,676.2 m 0.1,0.4 v -0.1"
         sodipodi:nodetypes="cccscccccc" />
      <path
         id="path242"
         d="m 123.7125,557.55 c 3.92839,13.05919 0.29192,20.03249 1.2875,34.35 -3.68439,11.80305 2.35127,32.27109 -2,39.4 -2.91763,-24.46355 1.11533,-49.08481 1.5125,-73.45 0.60581,-1.80301 -3.15842,-0.46055 0,0"
         sodipodi:nodetypes="ccccc" />
      <path
         id="path244"
         d="m 121.9,631.2 c 7.84502,2.57884 25.11711,17.12675 22.2,20.9 -0.96155,-6.8986 -27.3397,-19.84025 -20.6,-20.4" />
      <path
         id="path246"
         d="m 303.8,552.6 c 8.61077,10.04365 -3.23378,-0.86294 2.975,14.0125 1.26626,23.03748 1.57965,46.39339 0.15625,69.36719 -4.11727,-12.5485 0.90953,-33.59188 -1.33125,-49.17969 2.90189,-10.46738 -5.56281,-27.0163 -0.9,-33.9" />
      <path
         id="path248"
         d="m 302,636.7 c 0.61662,3.51914 -12.33749,17.89606 -14.5,16.8375 4.4677,-5.63538 8.2265,-13.54804 14.9,-16.7375" />
      <path
         id="path252"
         d="m 123.3,655.8 c 6.18655,23.20584 -1.25709,48.01385 0.96797,71.94414 0.0239,22.34321 1.20729,45.00552 -0.56797,67.15586 -4.10287,-13.58433 1.0289,-34.15999 -1.4,-50 -0.44782,-22.8729 0.0639,-45.699 1.4,-68.5 2.29097,-5.58662 -4.36826,-17.47154 0.1,-20.4" />
      <path
         id="path254"
         d="m 149.53044,793.65503 c 7.15257,0.51649 156.39456,0.10747 156.39456,0.10747 l -0.0394,1.95309 c 0,0 -159.30978,-1.52837 -176.81722,-1.42575 l -5.61664,-1.39822"
         sodipodi:nodetypes="ccccc" />
      <path
         id="path258"
         d="m 305.4,650.9 c 2.56653,10.72374 1.32771,27.02233 0.7,39.6 -1.99957,34.38857 1.95931,69.01694 -0.175,103.2625 -0.45274,-1.6617 -1.15454,1.83817 -1.41845,-0.005 -1.9158,-13.38008 0.93634,-36.28007 -0.30655,-50.57551 -1.82618,-26.32107 0.42469,-52.64854 0.54687,-78.98045 C 305.23806,660.9724 301.63195,651.71087 306.1,651.1"
         sodipodi:nodetypes="cccsccc" />
      <path
         id="path260"
         d="m 196,652.7 c 35.16289,0.28137 75.04591,2.21809 110.14878,2.7125 -14.98692,4.30072 -41.69331,0.30441 -59.24878,0.25469 -20.56045,-0.23515 -102.82493,0.0213 -123.1,0.33281 2.65271,-3.98185 73.79726,-2.47455 78.3,-3.2"
         sodipodi:nodetypes="ccccc" />
      <path
         id="path262"
         d="m 286.3,553.4 c 4.88742,7.53209 0.60094,35.51183 0.0172,10.84219 0.80811,-2.531 -3.23072,-10.69506 0.88281,-10.44219" />
      <path
         id="path264"
         d="m 260.9,555.3 c 2.73031,1.82671 2.40954,27.1086 -0.5,16 0.0676,-3.92198 -2.42887,-15.00831 1.2,-15.7" />
      <path
         id="path266"
         d="m 168.2,554.5 c 4.74947,9.56454 -1.78394,-2.1257 -0.2,10 2.50999,17.01331 -3.85041,10.4992 -1.7,-2 0.92172,-1.43246 -1.64025,-9.54086 2.9,-7.6" />
      <path
         id="path268"
         d="m 140,555.2 c 5.25173,7.08964 2.13498,29.53402 0.425,8.6625 0.38321,-1.38216 -3.89107,-10.11537 0.275,-8.0625" />
      <path
         id="path270"
         d="m 135.7,556.4 c 9.1737,5.01002 -30.26912,1.27598 -9.3,0.3 3.65157,-0.19485 7.35574,-0.57306 11,-0.1 m -0.6,1.3 v 0.1 z" />
      <path
         id="path272"
         d="m 168.2,554.5 c 3.23688,-3.86706 20.49355,2.34845 20.49355,2.34845"
         sodipodi:nodetypes="cc" />
      <path
         id="path274"
         d="m 252.8,557.4 c 10.11574,1.33074 9.79763,7.73834 0.3,2 -7.53661,2.41369 -20.32898,2.29961 -5.9875,-1.3 3.50053,-0.84241 7.1357,-0.79045 10.6875,-0.4" />
      <path
         id="path276"
         d="m 291.1,555.6 c 12.03162,-0.38622 14.81621,5.62478 1.3625,1.9875 -13.79032,4.61596 -7.30035,-4.97101 3.3375,-1.7875" />
      <path
         id="path282"
         d="m 244.40115,597.36409 c 9.45555,4.19115 -26.8741,0.80634 -31.82615,1.85349 -6.30409,1.22434 -35.87943,4.87784 -26.1,-1.44258 4.65969,4.66718 27.00823,-2.5992 40.825,-0.575 4.38696,-0.0979 9.0125,-0.99298 13.3,0.3"
         sodipodi:nodetypes="ccccc" />
      <path
         id="path288"
         d="m 187.3,591.5 c -0.71143,3.0876 0.42398,0.62099 0.1,0"
         sodipodi:nodetypes="cc" />
      <path
         id="path294"
         d="m 239.47726,623.46346 c 0,0 10.7872,1.14685 5.96562,2.23617 -3.84745,0.86925 -24.27189,-0.003 -28.6265,-0.18271 -5.11025,0.35897 -14.38423,-0.13563 -20.30614,-0.17877 -2.56155,-0.0187 -9.34692,0.56727 -9.14899,-0.93076 0.23059,-1.74511 2.15865,-1.62517 4.43506,-1.32283 11.25466,0.24193 25.6367,-0.413 36.80369,0.0154"
         sodipodi:nodetypes="cscsscc" />
      <path
         id="path298"
         d="m 189.2,624.3 c 1.93257,12.80565 -2.29903,10.15765 -1.625,0.0875 0.93371,0.21442 1.47077,-0.17312 2.225,0.3125" />
      <path
         id="path300"
         d="m 192.16005,600.0157 c -1.08432,10.34904 38.36319,4.10386 41.87513,3.8198 2.00816,-0.16243 0.59722,-3.91257 1.69538,-4.65153 0,0 3.3838,7.36199 -0.84285,7.46258 -6.57998,0.1566 -26.41541,0.38344 -30.13771,1.30345 -3.19064,1.58196 -20.17931,3.0156 -14.15,-7.65"
         sodipodi:nodetypes="cscscc" />
      <path
         id="path304"
         d="m 196.6,633.5 c 1.96879,2.02723 -3.28466,0.0366 0,-0.1" />
      <path
         id="path308"
         d="m 189.8,627 c 0.35336,3.05311 -0.85512,9.92321 -1.7,16.2 0.49669,-3.2993 -3.09744,-12.68206 2.2,-15.9" />
      <path
         id="path310"
         d="m 186.6,616.9 c 2.93651,7.39233 -0.20195,25.82341 -1.2,6.5"
         sodipodi:nodetypes="cc" />
      <path
         id="path312"
         d="m 183.52291,557.66545 c 0.56561,2.54581 1.03265,-9.2286 1.9215,0.34128 2.56581,27.62505 5.84375,92.91875 3.19883,95.78558 -1.73946,1.8854 -2.68254,-0.70258 -3.64324,1.20769 1.59406,-11.87357 -0.46767,-17.75089 1.44396,-27.66841"
         sodipodi:nodetypes="csscc" />
      <path
         id="path320"
         d="m 246.70924,655.56844 c 0,0 -2.99563,0.28338 -4.98533,-1.02345 6.87429,1.41783 -0.74493,-93.74351 -0.74493,-93.74351 2.76266,-7.14609 3.82353,-0.76044 3.82353,-0.76044"
         sodipodi:nodetypes="ccsc" />
      <path
         id="path328"
         d="m 195.7,627 c 2.79661,5.21697 2.92565,20.83234 0.98437,24.70156 C 195.45762,646.77919 192.96941,629.29865 196.5,627.4" />
      <path
         id="path330"
         d="m 228.6,623.1 c 1.84433,7.88285 2.49722,30.70809 0.55163,30.45058 C 227.28061,646.76762 225.5715,628.04411 229.4,623.6"
         sodipodi:nodetypes="ccc" />
      <path
         id="path332"
         d="m 248.1,811.5 c 20.07289,0.45561 40.60769,0.27498 60.325,2.8 -14.28062,2.55493 -33.19184,-1.48283 -49.1123,-0.68574 -39.7571,-0.43162 -79.36867,3.3299 -119.08829,2.38886 -11.73563,2.17892 -23.71064,-1.23237 -1.68075,-1.35095 32.46554,0.17796 58.9924,-1.58305 91.43154,-2.70647 8.60786,-0.1626 17.21369,-0.53362 25.8248,-0.4457"
         sodipodi:nodetypes="ccccccc" />
      <path
         id="path336"
         d="m 192.8,796.2 c 2.7432,1.57529 0.0844,29.60287 -1.7125,11.65 0.5563,-2.2516 -1.82826,-12.45758 2.5125,-11.25" />
      <path
         id="path338"
         d="m 231.2,798 c 4.5346,7.56641 -3.49172,24.0194 -0.875,5.55 -0.33505,0.88113 -0.97937,-7.64848 1.475,-4.95" />
      <path
         id="path340"
         d="m 125.9,814.9 c 3.66584,5.8678 -1.76955,18.03306 1.2,31.7 0.52042,17.54077 1.58807,37.8683 -2.375,53.875 -0.66812,-17.92523 2.18214,-37.59367 0.35156,-56.16562 l 0.0493,-21.19118"
         sodipodi:nodetypes="ccccc" />
      <path
         id="path342"
         d="m 309.5,814.2 c 2.41291,17.44343 -1.1788,36.68667 -1.74219,54.75938 -0.29274,4.814 -1.63007,30.76924 0.46391,30.64777 l -3.3445,0.194 c 1.11629,-23.22224 3.36966,-61.48044 3.67278,-84.68865 l 0.48125,-0.86406 L 310,814.5"
         sodipodi:nodetypes="ccscccc" />
      <path
         id="path344"
         d="m 201.1,898.6 c 35.91927,1.55333 72.23484,0.55604 107.96094,0.76406 -16.55486,4.19786 -37.5861,1.20899 -55.84473,1.84649 -42.09874,-0.26622 -86.38536,-1.48902 -128.49121,-0.73555 2.81333,-3.30313 27.48496,-0.72728 36.85625,-1.56406 18.53514,-0.28683 37.08698,-0.45976 55.61875,0.0891"
         sodipodi:nodetypes="cccccc" />
      <path
         id="path346"
         d="m 155.6,901 c -1.87452,15.24475 -7.79431,8.75631 0.4,1.2" />
      <path
         id="path348"
         d="m 158.1,898.5 c -5.99113,15.29333 -11.53678,33.36542 -14.34844,50.60938 -1.95847,7.78945 -2.98663,43.11328 -4.24843,17.34843 2.69548,-22.96669 6.4967,-46.74738 17.42187,-67.29531 l 0.925,-0.68906 0.85,0.72656" />
      <path
         id="path350"
         d="m 279.6,899.5 c 8.08161,12.92439 10.52602,30.44889 10.625,46.00156 1.35337,6.77801 -1.67059,41.62279 -1.925,17.99844 0.32748,-19.45893 0.0943,-39.16088 -7.1375,-57.5375 0.4332,-1.60696 -5.24776,-7.02433 -0.7625,-6.1625" />
      <path
         id="path352"
         d="m 204.6,977.7 c 28.6937,-0.35827 57.3438,1.58279 86,1.4 4.60532,4.89273 -22.81109,0.53515 -30.33086,1.66211 -38.59414,-2.12719 -77.24268,-0.42284 -115.80664,0.92539 -17.72343,-3.51131 12.36373,-0.95521 16.53496,-2.10254 23.9328,-1.72473 47.91469,-2.27955 71.90254,-1.68496" />
      <path
         id="path354"
         d="m 173.7,897.6 c -3.77114,14.80256 -13.98442,30.51524 -15.6,47.1 -3.14645,8.47816 4.4895,28.16969 -0.9,31.3 -3.22594,-21.34081 -1.11115,-43.13709 8.4125,-62.7 3.31284,-3.70368 4.16232,-14.6442 8.6875,-15.1" />
      <path
         id="path356"
         d="m 266.4,899.1 c 9.43751,12.36504 11.1531,30.95647 13.725,46.55 4.5261,8.94075 -7.33489,45.22063 -2.2375,18.44844 2.77362,-22.2622 -4.17714,-44.74942 -11.82969,-64.88125 L 266.8,899.1 l 0.5,0.3" />
      <path
         id="path358"
         d="m 189.8,898.7 c -4.95526,15.53083 -9.90165,34.74961 -9.38125,52.54219 0.25831,8.54596 4.42853,34.58491 -1.04375,12.00781 -2.09269,-21.52081 -0.0837,-44.72312 9.65,-64.2875 l 0.71875,-0.19531 L 190.5,899.2" />
      <path
         id="path360"
         d="m 250.7,898.2 c 4.87501,1.67946 5.15825,23.42023 6.925,35.3 2.16712,10.54036 -0.18314,35.18754 -3.525,38.4 2.61957,-21.20176 3.47804,-42.44049 -1.7,-63.4 0.43069,-2.06599 -6.16504,-11.63312 -0.1,-10" />
      <path
         id="path362"
         d="m 206.8,897.8 c -0.27613,15.16409 -4.85953,32.38885 -3.99844,48.42812 -0.1695,8.56702 2.53378,34.83332 -1.86093,13.49532 C 200.12602,939.19757 201.96606,918.64608 205.6,898.5 l 0.7625,-0.625 L 207.2,898" />
      <path
         id="path364"
         d="m 229.9,897.6 c 8.51974,18.10122 8.53764,40.71218 3.8,60.4 1.08411,9.3248 -5.12848,21.33313 -2.4,4.9 4.0082,-20.52659 5.91221,-42.2103 -1.8,-62.2 -1.66219,7.15451 -1.96418,-5.20484 1.2,-2.8" />
      <path
         id="path366"
         d="m 218.4,900.5 c 4.35885,21.51435 -0.67132,44.66518 1.6,66.81799 C 216.5489,978.40971 217.94677,949.423 217.31875,945.05 219.8342,931.00613 215.77741,911.96173 219,900.9 m -0.8,0.8 h 0.1" />
      <path
         id="path368"
         d="M 386.71447,671.35872 340.55,673.175 c -0.8632,0.44969 -14.30812,0.74486 -14.30812,0.74486 l 0.24271,-2.64654 c 0.0791,-0.86257 6.62804,-0.13606 7.73512,-0.22978 17.73487,-1.4195 34.95131,-0.93965 51.98029,-1.94354"
         sodipodi:nodetypes="cccscc" />
      <path
         id="path372"
         d="m 386.2,669.1 c 2.92823,12.7155 -0.72939,27.36214 0.3,41.4 1.53791,26.69538 0.51995,59.03433 0.48832,85.78442 -0.8487,1.41423 -2.95417,0.82852 -3.2744,-0.41038 -1.16916,-4.52327 1.79449,-28.09209 1.41264,-33.29904 -0.0126,-22.22724 0.0652,-44.3874 -0.52656,-66.575 1.92651,-8.78283 0.59244,-23.19144 0.59244,-23.19144"
         sodipodi:nodetypes="cccsccc" />
      <path
         id="path374"
         d="m 358.8,794 c 6.44371,-0.74872 35.4303,2.31632 27.05648,2.80472 -0.73738,0.043 3.4723,1.22272 0.18436,1.51391 -3.04208,0.26942 -13.5568,-0.34449 -15.15105,-0.39096 -4.38622,-0.74157 -34.59984,2.05477 -50.68979,-0.028 2.52098,-0.63938 -1.21884,-2.38877 1.6395,-2.78638 8.69659,-1.20974 25.02228,-0.26383 33.56206,-0.99643 3.33211,-0.14322 6.67445,-0.10363 9.99844,0.18281"
         sodipodi:nodetypes="cssccscc" />
      <path
         id="path376"
         d="M 328.74117,672.04801 C 328.53992,684.42727 325.9238,698.62229 326.5,713.2 c -3.0185,20.54585 -2.14277,41.4043 -4.075,62.0625 1.71421,7.94565 -1.46045,35.00431 -1.625,14.1375 -1.11921,-22.53241 1.95946,-45.02017 2.43594,-67.53437 C 327.37387,705.95754 321.84289,684.38276 326.1,671.3"
         sodipodi:nodetypes="cccccc" />
      <path
         id="path380"
         d="m 324,709.9 c 2.90439,4.85814 -27.70245,2.41999 -15.9,0.7 5.52716,0.29832 11.31709,-1.68113 16.7,-0.2" />
      <path
         id="path382"
         d="m 308.6,734.2 c 8.45775,-0.56658 17.88225,3.99382 3.5,2.4125 -3.08292,1.80581 -11.01435,-2.76222 -3,-2.4125" />
      <path
         id="path384"
         d="m 106.9,712.1 c 8.11776,0.8186 20.98591,5.54888 5.42031,3.1375 C 108.59523,716.34858 97.875699,713.17234 108,712.5" />
      <path
         id="path386"
         d="m 106,740.7 c 6.8612,0.79699 23.91872,3.62861 6.7,3.125 -2.82738,1.07271 -15.053261,-2.45643 -5.2,-2.825" />
    </g>
    <path
       style="font-variation-settings:normal;opacity:1;vector-effect:none;fill:#000000;fill-opacity:1;stroke:#000000;stroke-width:1;stroke-linecap:butt;stroke-linejoin:miter;stroke-miterlimit:4;stroke-dasharray:none;stroke-dashoffset:0;stroke-opacity:1;stop-color:#000000;stop-opacity:1"
       d="m 286.98399,572.91002 c -1.14021,0.0735 -2.2085,-0.4239 -3.32742,-0.50427 -1.72947,-0.12423 -3.5275,0 -5.26176,0 -3.73484,0 -7.46968,0 -11.20452,0 -1.78929,0 -1.53143,-0.12158 -3.08868,0.39645 -0.42631,0.14181 -1.1266,0.0827 -1.59053,0.19943 -0.49479,0.12448 -1.27761,0 -1.78745,0 -0.42196,0 -0.7574,0.004 -0.7568,0 0.0864,-0.57888 0.28878,-1.13442 0.43317,-1.70163"
       id="path598" />
    <path
       style="font-variation-settings:normal;opacity:1;vector-effect:none;fill:#000000;fill-opacity:1;stroke:#000000;stroke-width:1;stroke-linecap:butt;stroke-linejoin:miter;stroke-miterlimit:4;stroke-dasharray:none;stroke-dashoffset:0;stroke-opacity:1;stop-color:#000000;stop-opacity:1"
       d="m 142.70695,572.00486 c 8.42851,0 16.85702,0 25.28553,0"
       id="path600" />
    <path
       style="fill:#00ff00;stroke:#00ff00;stroke-width:0.199436"
       d="m 340.48795,242.53957 c -3.68622,-0.47281 -9.00066,-0.92522 -14.15998,-1.2054 -3.19055,-0.17327 -5.20954,-0.17062 -8.47605,0.0111 -2.35833,0.13121 -10.43551,0.31487 -17.94927,0.40814 -7.51377,0.0933 -14.50577,0.26627 -15.53778,0.38445 -1.03201,0.11817 -1.91343,0.17782 -1.9587,0.13255 -0.0453,-0.0453 0.0733,-1.50439 0.26348,-3.24249 0.39046,-3.56835 0.49431,-13.88267 0.15531,-15.4255 -0.13512,-0.61493 -0.12107,-1.83922 0.0446,-3.88901 0.44337,-5.48519 0.67761,-9.88842 1.07684,-20.24279 0.77663,-20.14219 1.27189,-27.70225 2.32562,-35.49968 0.20059,-1.48439 0.33203,-4.29874 0.37255,-7.97745 0.062,-5.62712 0.24375,-9.18011 0.79581,-15.55604 0.28265,-3.26439 1.22093,-14.95061 1.41879,-17.67097 l 0.10306,-1.4169 4.02429,-0.14046 c 2.21336,-0.0773 4.83201,-0.22069 5.81922,-0.31875 0.98721,-0.0981 10.85931,-0.53743 21.938,-0.97636 11.07869,-0.43893 21.19352,-0.85465 22.47739,-0.92383 l 2.33432,-0.12577 -0.18764,0.65426 c -0.11794,0.41124 -0.11523,1.65835 0.007,3.35751 0.43241,5.99596 0.19891,14.80973 -0.50129,18.92244 -0.2373,1.39382 -0.24924,3.10651 -0.0744,10.66985 0.11457,4.95524 0.22343,21.21503 0.24191,36.13287 l 0.0336,27.12335 -0.6423,7.77802 c -0.80177,9.70899 -1.11718,15.67024 -0.9418,17.79969 0.0746,0.90547 0.0576,1.6341 -0.0377,1.62032 -0.0952,-0.0138 -1.42962,-0.18619 -2.96528,-0.38316 z"
       id="path1765"
       transform="translate(39.9,552.6)" />
    <use
       x="0"
       y="0"
       xlink:href="#path1765"
       id="use1767" />
  </g>
</svg>
