<?xml version="1.0" encoding="UTF-8" standalone="no"?>
<svg
   xmlns:dc="http://purl.org/dc/elements/1.1/"
   xmlns:cc="http://creativecommons.org/ns#"
   xmlns:rdf="http://www.w3.org/1999/02/22-rdf-syntax-ns#"
   xmlns:svg="http://www.w3.org/2000/svg"
   xmlns="http://www.w3.org/2000/svg"
   xmlns:sodipodi="http://sodipodi.sourceforge.net/DTD/sodipodi-0.dtd"
   xmlns:inkscape="http://www.inkscape.org/namespaces/inkscape"
   width="347.46161"
   height="429.08749"
   version="1.1"
   id="svg392"
   sodipodi:docname="SHIP_BRIDGE.svg"
   inkscape:version="1.0.2 (1.0.2+r75+1)">
  <metadata
     id="metadata398">
    <rdf:RDF>
      <cc:Work
         rdf:about="">
        <dc:format>image/svg+xml</dc:format>
        <dc:type
           rdf:resource="http://purl.org/dc/dcmitype/StillImage" />
        <dc:title></dc:title>
      </cc:Work>
    </rdf:RDF>
  </metadata>
  <defs
     id="defs396" />
  <sodipodi:namedview
     pagecolor="#ffffff"
     bordercolor="#666666"
     borderopacity="1"
     objecttolerance="10"
     gridtolerance="10"
     guidetolerance="10"
     inkscape:pageopacity="0"
     inkscape:pageshadow="2"
     inkscape:window-width="1848"
     inkscape:window-height="1016"
     id="namedview394"
     showgrid="false"
     showguides="false"
     inkscape:zoom="3.5455254"
     inkscape:cx="122.73623"
     inkscape:cy="120.25567"
     inkscape:window-x="72"
     inkscape:window-y="27"
     inkscape:window-maximized="1"
     inkscape:current-layer="g390" />
  <g
     transform="translate(-39.9,-552.6)"
     id="g390">
    <g
       id="g388">
      <path
         id="path232"
         d="m 59.6,675.8 c 14.263859,1.44285 33.736974,-1.18625 44.65,3.375 C 83.235346,678.96413 61.083589,677.43098 39.9,678 c 7.962539,-3.95105 21.808071,-1.39084 31.4,-2" />
      <path
         id="path234"
         d="m 44.8,673.7 c 2.847019,21.53485 1.586951,44.8789 2.1,67.15 -0.905186,18.26545 0.647356,37.53936 -0.5,55.25 -3.943611,-16.33825 -0.672306,-35.61874 -1.6,-53 0.233218,-22.52762 -0.358563,-45.10013 -1.1,-67.6 -0.335721,-0.68482 0.915585,-2.58588 1.7,-1.4" />
      <path
         id="path236"
         d="m 87.1,794.1 c 10.606981,-1.04132 26.86508,3.86069 7.5625,2.7125 C 78.39203,795.24892 59.91605,797.26788 45,798.1 35.40374,793.23596 63.804307,796.44675 68.875,794.7875 76.187382,793.71721 83.648117,794.32334 91,794.5 m 11.9,1.1 h 0.1" />
      <path
         id="path238"
         d="m 105.5,739.2 c 0.35616,4.97315 -2.29017,-1.79433 0.2,0.6" />
      <path
         id="path240"
         d="m 105.1,675.9 c 2.18017,11.94422 0.77377,25.2581 1.3375,37.7 -1.92728,26.72984 3.07278,53.83288 -0.3375,80.3 -2.54794,-16.81343 0.23225,-36.54312 -1.975,-54.4375 0.27531,-21.03847 0.0483,-42.3233 0.4375,-63.25 l 0.50781,-0.32969 L 105.7,676.2 m 0.1,0.4 v -0.1" />
      <path
         id="path242"
         d="m 123.7125,557.55 c 3.92839,13.05919 0.29192,20.03249 1.2875,34.35 -3.68439,11.80305 2.35127,32.27109 -2,39.4 -2.91763,-24.46355 1.11533,-49.08481 1.5125,-73.45 0.60581,-1.80301 -3.15842,-0.46055 0,0"
         sodipodi:nodetypes="ccccc" />
      <path
         id="path244"
         d="m 121.9,631.2 c 7.84502,2.57884 25.11711,17.12675 22.2,20.9 -0.96155,-6.8986 -27.3397,-19.84025 -20.6,-20.4" />
      <path
         id="path246"
         d="m 303.8,552.6 c 8.61077,10.04365 -3.23378,-0.86294 2.975,14.0125 1.26626,23.03748 1.57965,46.39339 0.15625,69.36719 -4.11727,-12.5485 0.90953,-33.59188 -1.33125,-49.17969 2.90189,-10.46738 -5.56281,-27.0163 -0.9,-33.9" />
      <path
         id="path248"
         d="m 302,636.7 c 0.61662,3.51914 -12.33749,17.89606 -14.5,16.8375 4.4677,-5.63538 8.2265,-13.54804 14.9,-16.7375" />
      <path
         id="path250"
         d="m 179.3,653.3 c 10.66732,-0.81491 21.032,4.41789 4.06563,2.20937 -20.86741,-0.29891 -41.9614,1.42862 -62.70313,1.07813 13.03291,-4.31872 34.2523,-1.53077 50.17188,-3.01094 4.02314,0.0319 8.04384,-0.38887 12.06562,-0.0766" />
      <path
         id="path252"
         d="m 123.3,655.8 c 6.18655,23.20584 -1.25709,48.01385 0.96797,71.94414 0.0239,22.34321 1.20729,45.00552 -0.56797,67.15586 -4.10287,-13.58433 1.0289,-34.15999 -1.4,-50 -0.44782,-22.8729 0.0639,-45.699 1.4,-68.5 2.29097,-5.58662 -4.36826,-17.47154 0.1,-20.4" />
      <path
         id="path254"
         d="m 148.1,794.8 c 7.15257,0.51649 41.48606,-0.57922 34.3,2.5 -20.53569,-0.38753 -41.1195,-0.28618 -61.6,-0.1 2.35133,-4.33503 24.82309,-1.31226 32,-2.2" />
      <path
         id="path256"
         d="m 293,795.1 c 21.47602,3.24259 -19.04692,1.7917 -24.5,2.8 -10.17544,-0.25064 -21.33824,1.62974 -31,-0.6 4.79652,-2.87702 13.75264,-0.0226 19.9979,-1 13.1552,-0.78012 26.3202,-0.94778 39.5021,-1.1" />
      <path
         id="path258"
         d="m 305.4,650.9 c 2.56653,10.72374 1.32771,27.02233 0.7,39.6 -1.99957,34.38857 1.95931,69.01694 -0.175,103.2625 -3.73932,-13.72453 -0.3109,-34.31581 -1.725,-50.58049 -1.82618,-26.32107 0.42469,-52.64854 0.54687,-78.98045 C 305.23806,660.9724 301.63195,651.71087 306.1,651.1" />
      <path
         id="path260"
         d="m 196,652.7 c 35.16289,0.28137 70.29713,2.21809 105.4,2.7125 -14.98692,4.30072 -36.94453,0.30441 -54.5,0.25469 C 226.33955,655.43204 205.27507,654.68847 185,655 c 2.65271,-3.98185 12.59726,-1.47455 17.1,-2.2" />
      <path
         id="path262"
         d="m 286.3,553.4 c 4.88742,7.53209 0.60094,35.51183 0.0172,10.84219 0.80811,-2.531 -3.23072,-10.69506 0.88281,-10.44219" />
      <path
         id="path264"
         d="m 260.9,555.3 c 2.73031,1.82671 2.40954,27.1086 -0.5,16 0.0676,-3.92198 -2.42887,-15.00831 1.2,-15.7" />
      <path
         id="path266"
         d="m 168.2,554.5 c 4.74947,9.56454 -1.78394,-2.1257 -0.2,10 2.50999,17.01331 -3.85041,10.4992 -1.7,-2 0.92172,-1.43246 -1.64025,-9.54086 2.9,-7.6" />
      <path
         id="path268"
         d="m 140,555.2 c 5.25173,7.08964 2.13498,29.53402 0.425,8.6625 0.38321,-1.38216 -3.89107,-10.11537 0.275,-8.0625" />
      <path
         id="path270"
         d="m 135.7,556.4 c 9.1737,5.01002 -30.26912,1.27598 -9.3,0.3 3.65157,-0.19485 7.35574,-0.57306 11,-0.1 m -0.6,1.3 v 0.1 z" />
      <path
         id="path272"
         d="m 168.2,554.5 c 3.23688,-3.86706 20.49355,2.34845 20.49355,2.34845"
         sodipodi:nodetypes="cc" />
      <path
         id="path274"
         d="m 252.8,557.4 c 10.11574,1.33074 9.79763,7.73834 0.3,2 -7.53661,2.41369 -20.32898,2.29961 -5.9875,-1.3 3.50053,-0.84241 7.1357,-0.79045 10.6875,-0.4" />
      <path
         id="path276"
         d="m 291.1,555.6 c 12.03162,-0.38622 14.81621,5.62478 1.3625,1.9875 -13.79032,4.61596 -7.30035,-4.97101 3.3375,-1.7875" />
      <path
         id="path282"
         d="m 244.40115,597.36409 c 9.45555,4.19115 -26.8741,0.80634 -31.82615,1.85349 -6.30409,1.22434 -35.87943,4.87784 -26.1,-1.44258 4.65969,4.66718 27.00823,-2.5992 40.825,-0.575 4.38696,-0.0979 9.0125,-0.99298 13.3,0.3"
         sodipodi:nodetypes="ccccc" />
      <path
         id="path288"
         d="m 187.3,591.5 c -0.71143,3.0876 0.42398,0.62099 0.1,0"
         sodipodi:nodetypes="cc" />
      <path
         id="path294"
         d="m 239.47726,623.46346 c 0,0 10.7872,1.14685 5.96562,2.23617 -3.84745,0.86925 -24.27189,-0.003 -28.6265,-0.18271 -5.11025,0.35897 -14.38423,-0.13563 -20.30614,-0.17877 -2.56155,-0.0187 -9.34692,0.56727 -9.14899,-0.93076 0.23059,-1.74511 2.15865,-1.62517 4.43506,-1.32283 11.25466,0.24193 25.6367,-0.413 36.80369,0.0154"
         sodipodi:nodetypes="cscsscc" />
      <path
         id="path298"
         d="m 189.2,624.3 c 1.93257,12.80565 -2.29903,10.15765 -1.625,0.0875 0.93371,0.21442 1.47077,-0.17312 2.225,0.3125" />
      <path
         id="path300"
         d="m 192.16005,600.0157 c -1.08432,10.34904 38.36319,4.10386 41.87513,3.8198 2.00816,-0.16243 0.59722,-3.91257 1.69538,-4.65153 0,0 3.3838,7.36199 -0.84285,7.46258 -6.57998,0.1566 -26.41541,0.38344 -30.13771,1.30345 -3.19064,1.58196 -20.17931,3.0156 -14.15,-7.65"
         sodipodi:nodetypes="cscscc" />
      <path
         id="path304"
         d="m 196.6,633.5 c 1.96879,2.02723 -3.28466,0.0366 0,-0.1" />
      <path
         id="path308"
         d="m 189.8,627 c 0.35336,3.05311 -0.85512,9.92321 -1.7,16.2 0.49669,-3.2993 -3.09744,-12.68206 2.2,-15.9" />
      <path
         id="path310"
         d="m 186.6,616.9 c 2.93651,7.39233 -0.20195,25.82341 -1.2,6.5"
         sodipodi:nodetypes="cc" />
      <path
         id="path312"
         d="m 183.52291,557.66545 c 0.56561,2.54581 1.03265,-9.2286 1.9215,0.34128 2.56581,27.62505 5.84375,92.91875 3.19883,95.78558 -1.73946,1.8854 -2.68254,-0.70258 -3.64324,1.20769 1.59406,-11.87357 -0.46767,-17.75089 1.44396,-27.66841"
         sodipodi:nodetypes="csscc" />
      <path
         id="path320"
         d="m 246.70924,655.56844 c 0,0 -2.99563,0.28338 -4.98533,-1.02345 6.87429,1.41783 -0.74493,-93.74351 -0.74493,-93.74351 2.76266,-7.14609 3.82353,-0.76044 3.82353,-0.76044"
         sodipodi:nodetypes="ccsc" />
      <path
         id="path328"
         d="m 195.7,627 c 2.79661,5.21697 2.92565,20.83234 0.98437,24.70156 C 195.45762,646.77919 192.96941,629.29865 196.5,627.4" />
      <path
         id="path330"
         d="m 228.6,623.1 c 1.84433,7.88285 2.49722,30.70809 0.55163,30.45058 C 227.28061,646.76762 225.5715,628.04411 229.4,623.6"
         sodipodi:nodetypes="ccc" />
      <path
         id="path332"
         d="m 248.1,811.5 c 20.07289,0.45561 40.60769,0.27498 60.325,2.8 -14.28062,2.55493 -33.19184,-1.48283 -49.1123,-0.68574 -39.7571,-0.43162 -79.36867,3.3299 -119.08829,2.38886 -11.73563,2.17892 -23.71064,-1.23237 -1.68075,-1.35095 32.46554,0.17796 58.9924,-1.58305 91.43154,-2.70647 8.60786,-0.1626 17.21369,-0.53362 25.8248,-0.4457"
         sodipodi:nodetypes="ccccccc" />
      <path
         id="path334"
         d="m 204.8,795.2 c 13.30427,1.88314 33.63852,-0.21759 43.30469,4.20313 -20.04488,-0.0133 -40.23651,-3.15276 -60.37031,-1.61719 C 167.42019,795.18727 207.89284,795.62778 210.6,795.4" />
      <path
         id="path336"
         d="m 192.8,796.2 c 2.7432,1.57529 0.0844,29.60287 -1.7125,11.65 0.5563,-2.2516 -1.82826,-12.45758 2.5125,-11.25" />
      <path
         id="path338"
         d="m 231.2,798 c 4.5346,7.56641 -3.49172,24.0194 -0.875,5.55 -0.33505,0.88113 -0.97937,-7.64848 1.475,-4.95" />
      <path
         id="path340"
         d="m 125.9,814.9 c 3.66584,5.8678 -1.76955,18.03306 1.2,31.7 0.52042,17.54077 1.58807,37.8683 -2.375,53.875 -0.66812,-17.92523 2.18214,-37.59367 0.35156,-56.16562 l 0.0493,-21.19118"
         sodipodi:nodetypes="ccccc" />
      <path
         id="path342"
         d="m 309.5,814.2 c 2.41291,17.44343 -1.1788,36.68667 -1.74219,54.75938 1.07647,7.4328 -3.38495,38.41692 -2.80781,15.97812 1.11629,-23.22224 3.29688,-46.61679 3.6,-69.825 l 0.48125,-0.86406 L 310,814.5" />
      <path
         id="path344"
         d="m 201.1,898.6 c 35.91927,1.55333 72.23484,0.55604 107.96094,0.76406 -16.55486,4.19786 -37.5861,1.20899 -55.84473,1.84649 C 211.11747,900.94433 169.00585,899.94653 126.9,900.7 c 2.81333,-3.30313 25.30996,-0.95228 34.68125,-1.78906 18.53514,-0.28683 37.08698,-0.45976 55.61875,0.0891" />
      <path
         id="path346"
         d="m 155.6,901 c -1.87452,15.24475 -7.79431,8.75631 0.4,1.2" />
      <path
         id="path348"
         d="m 158.1,898.5 c -5.99113,15.29333 -11.53678,33.36542 -14.34844,50.60938 -1.95847,7.78945 -2.98663,43.11328 -4.24843,17.34843 2.69548,-22.96669 6.4967,-46.74738 17.42187,-67.29531 l 0.925,-0.68906 0.85,0.72656" />
      <path
         id="path350"
         d="m 279.6,899.5 c 8.08161,12.92439 10.52602,30.44889 10.625,46.00156 1.35337,6.77801 -1.67059,41.62279 -1.925,17.99844 0.32748,-19.45893 0.0943,-39.16088 -7.1375,-57.5375 0.4332,-1.60696 -5.24776,-7.02433 -0.7625,-6.1625" />
      <path
         id="path352"
         d="m 204.6,977.7 c 28.6937,-0.35827 57.3438,1.58279 86,1.4 4.60532,4.89273 -22.81109,0.53515 -30.33086,1.66211 -38.59414,-2.12719 -77.24268,-0.42284 -115.80664,0.92539 -17.72343,-3.51131 12.36373,-0.95521 16.53496,-2.10254 23.9328,-1.72473 47.91469,-2.27955 71.90254,-1.68496" />
      <path
         id="path354"
         d="m 173.7,897.6 c -3.77114,14.80256 -13.98442,30.51524 -15.6,47.1 -3.14645,8.47816 4.4895,28.16969 -0.9,31.3 -3.22594,-21.34081 -1.11115,-43.13709 8.4125,-62.7 3.31284,-3.70368 4.16232,-14.6442 8.6875,-15.1" />
      <path
         id="path356"
         d="m 266.4,899.1 c 9.43751,12.36504 11.1531,30.95647 13.725,46.55 4.5261,8.94075 -7.33489,45.22063 -2.2375,18.44844 2.77362,-22.2622 -4.17714,-44.74942 -11.82969,-64.88125 L 266.8,899.1 l 0.5,0.3" />
      <path
         id="path358"
         d="m 189.8,898.7 c -4.95526,15.53083 -9.90165,34.74961 -9.38125,52.54219 0.25831,8.54596 4.42853,34.58491 -1.04375,12.00781 -2.09269,-21.52081 -0.0837,-44.72312 9.65,-64.2875 l 0.71875,-0.19531 L 190.5,899.2" />
      <path
         id="path360"
         d="m 250.7,898.2 c 4.87501,1.67946 5.15825,23.42023 6.925,35.3 2.16712,10.54036 -0.18314,35.18754 -3.525,38.4 2.61957,-21.20176 3.47804,-42.44049 -1.7,-63.4 0.43069,-2.06599 -6.16504,-11.63312 -0.1,-10" />
      <path
         id="path362"
         d="m 206.8,897.8 c -0.27613,15.16409 -4.85953,32.38885 -3.99844,48.42812 -0.1695,8.56702 2.53378,34.83332 -1.86093,13.49532 C 200.12602,939.19757 201.96606,918.64608 205.6,898.5 l 0.7625,-0.625 L 207.2,898" />
      <path
         id="path364"
         d="m 229.9,897.6 c 8.51974,18.10122 8.53764,40.71218 3.8,60.4 1.08411,9.3248 -5.12848,21.33313 -2.4,4.9 4.0082,-20.52659 5.91221,-42.2103 -1.8,-62.2 -1.66219,7.15451 -1.96418,-5.20484 1.2,-2.8" />
      <path
         id="path366"
         d="m 218.4,900.5 c 4.35885,21.51435 -0.67132,44.66518 1.6,66.81799 C 216.5489,978.40971 217.94677,949.423 217.31875,945.05 219.8342,931.00613 215.77741,911.96173 219,900.9 m -0.8,0.8 h 0.1" />
      <path
         id="path368"
         d="M 386.71447,671.35872 340.55,673.175 c -2.22684,1.16009 -28.12281,-0.13584 -6.84975,-1.93659 17.73487,-1.4195 35.47077,-1.13452 52.49975,-2.13841"
         sodipodi:nodetypes="cccc" />
      <path
         id="path372"
         d="m 386.2,669.1 c 2.92823,12.7155 -0.72939,27.36214 0.3,41.4 1.53791,26.69538 0.23163,53.54991 0.2,80.3 -3.94737,6.57765 -1.087,-21.5919 -1.57344,-28.225 -0.0126,-22.22724 0.0652,-44.3874 -0.52656,-66.575 1.92651,-8.78283 0.59244,-23.19144 0.59244,-23.19144"
         sodipodi:nodetypes="cccccc" />
      <path
         id="path374"
         d="m 358.8,794 c 7.53612,-0.87565 34.88511,3.46481 12,2.8 -16.74264,-3.20406 -34.51005,3.18272 -50.6,1.1 10.19116,-2.58473 23.85499,-2.80943 35.20156,-3.78281 3.33211,-0.14322 6.67445,-0.10363 9.99844,0.18281" />
      <path
         id="path376"
         d="m 325.6,670.8 c 2.81687,12.84877 0.39375,27.83317 0.9,42.4 -3.0185,20.54585 -2.14277,41.4043 -4.075,62.0625 1.71421,7.94565 -1.46045,35.00431 -1.625,14.1375 -1.11921,-22.53241 1.95946,-45.02017 2.43594,-67.53437 C 327.37387,705.95754 321.84289,684.38276 326.1,671.3" />
      <path
         id="path380"
         d="m 324,709.9 c 2.90439,4.85814 -27.70245,2.41999 -15.9,0.7 5.52716,0.29832 11.31709,-1.68113 16.7,-0.2" />
      <path
         id="path382"
         d="m 308.6,734.2 c 8.45775,-0.56658 17.88225,3.99382 3.5,2.4125 -3.08292,1.80581 -11.01435,-2.76222 -3,-2.4125" />
      <path
         id="path384"
         d="m 106.9,712.1 c 8.11776,0.8186 20.98591,5.54888 5.42031,3.1375 C 108.59523,716.34858 97.875699,713.17234 108,712.5" />
      <path
         id="path386"
         d="m 106,740.7 c 6.8612,0.79699 23.91872,3.62861 6.7,3.125 -2.82738,1.07271 -15.053261,-2.45643 -5.2,-2.825" />
    </g>
    <path
       style="font-variation-settings:normal;opacity:1;vector-effect:none;fill:#000000;fill-opacity:1;stroke:#000000;stroke-width:1;stroke-linecap:butt;stroke-linejoin:miter;stroke-miterlimit:4;stroke-dasharray:none;stroke-dashoffset:0;stroke-opacity:1;stop-color:#000000;stop-opacity:1"
       d="m 286.98399,572.91002 c -1.14021,0.0735 -2.2085,-0.4239 -3.32742,-0.50427 -1.72947,-0.12423 -3.5275,0 -5.26176,0 -3.73484,0 -7.46968,0 -11.20452,0 -1.78929,0 -1.53143,-0.12158 -3.08868,0.39645 -0.42631,0.14181 -1.1266,0.0827 -1.59053,0.19943 -0.49479,0.12448 -1.27761,0 -1.78745,0 -0.42196,0 -0.7574,0.004 -0.7568,0 0.0864,-0.57888 0.28878,-1.13442 0.43317,-1.70163"
       id="path598" />
    <path
       style="font-variation-settings:normal;opacity:1;vector-effect:none;fill:#000000;fill-opacity:1;stroke:#000000;stroke-width:1;stroke-linecap:butt;stroke-linejoin:miter;stroke-miterlimit:4;stroke-dasharray:none;stroke-dashoffset:0;stroke-opacity:1;stop-color:#000000;stop-opacity:1"
       d="m 142.70695,572.00486 c 8.42851,0 16.85702,0 25.28553,0"
       id="path600" />
    <path
       style="fill:#00ff00;stroke:#00ff00;stroke-width:0.282046"
       d="m 201.70901,70.986857 c -1.77323,-0.311565 -7.35944,-0.425423 -26.08922,-0.53175 -13.10807,-0.07441 -24.34811,-0.199809 -24.97786,-0.278659 l -1.145,-0.143363 -0.35355,-9.50981 c -0.19446,-5.230396 -0.42522,-9.985763 -0.51281,-10.567482 -0.14938,-0.992105 -0.11374,-1.057671 0.57492,-1.057671 0.67156,0 0.71072,0.06171 0.45912,0.723475 -0.40887,1.075417 -0.33304,3.141065 0.14957,4.074338 0.56894,1.100191 2.42844,2.133492 4.59266,2.55207 2.33963,0.452505 7.49999,0.177003 10.08717,-0.538538 2.42694,-0.671224 9.24008,-1.084632 21.84352,-1.325422 5.03874,-0.09627 9.21964,-0.297179 9.65884,-0.464155 1.19053,-0.452624 1.54628,-1.985224 0.98385,-4.238608 -0.24302,-0.973676 -0.52951,-1.992431 -0.63665,-2.2639 -0.17946,-0.454721 0.0933,-0.49358 3.46404,-0.49358 h 3.65883 l 0.18954,4.019151 c 0.75741,16.061293 0.87145,20.544596 0.52093,20.479589 -0.11634,-0.02158 -1.2269,-0.217635 -2.4679,-0.435685 z"
       id="path1613"
       transform="translate(39.9,552.6)" />
  </g>
</svg>
